<svg width="366" height="548" viewBox="0 0 366 548" fill="none" xmlns="http://www.w3.org/2000/svg">
<g clip-path="url(#clip0_61488_125)">
<g filter="url(#filter0_i_61488_125)">
<path d="M362 61.4924V-396.824L182.5 -500L3 -396.824V61.4924L182.5 164.674L362 61.4924Z" fill="url(#paint0_linear_61488_125)"/>
<g style="mix-blend-mode:luminosity" opacity="0.4">
<path style="mix-blend-mode:luminosity" opacity="0.4" d="M4.80078 -40.6504V62.1591L94.1006 113.569L183.4 62.1591V-40.6504L94.1006 -92.0601L4.80078 -40.6504Z" fill="url(#paint1_linear_61488_125)"/>
<path style="mix-blend-mode:luminosity" opacity="0.4" d="M4.80078 -143.465V-40.6555L94.1006 10.7541L183.4 -40.6555V-143.465L94.1006 -194.875L4.80078 -143.465Z" fill="url(#paint2_linear_61488_125)"/>
<path style="mix-blend-mode:luminosity" opacity="0.4" d="M183.4 62.1587V-40.6508L272.7 -92.0605L362 -40.6508V62.1587L272.7 113.568L183.4 62.1587Z" fill="url(#paint3_linear_61488_125)"/>
<path style="mix-blend-mode:luminosity" opacity="0.4" d="M362 -143.465V-40.6555L272.7 10.7541L183.4 -40.6555V-143.465L272.7 -194.875L362 -143.465Z" fill="url(#paint4_linear_61488_125)"/>
<path style="mix-blend-mode:luminosity" opacity="0.4" d="M272.7 113.59V10.7808L183.4 -40.6289L94.1006 10.7808V113.59L183.4 165L272.7 113.59Z" fill="url(#paint5_linear_61488_125)"/>
</g>
</g>
</g>
<defs>
<filter id="filter0_i_61488_125" x="3" y="-500" width="359" height="669" filterUnits="userSpaceOnUse" color-interpolation-filters="sRGB">
<feFlood flood-opacity="0" result="BackgroundImageFix"/>
<feBlend mode="normal" in="SourceGraphic" in2="BackgroundImageFix" result="shape"/>
<feColorMatrix in="SourceAlpha" type="matrix" values="0 0 0 0 0 0 0 0 0 0 0 0 0 0 0 0 0 0 127 0" result="hardAlpha"/>
<feOffset dy="4"/>
<feGaussianBlur stdDeviation="2"/>
<feComposite in2="hardAlpha" operator="arithmetic" k2="-1" k3="1"/>
<feColorMatrix type="matrix" values="0 0 0 0 0 0 0 0 0 0 0 0 0 0 0 0 0 0 0.25 0"/>
<feBlend mode="normal" in2="shape" result="effect1_innerShadow_61488_125"/>
</filter>
<linearGradient id="paint0_linear_61488_125" x1="2.99999" y1="-484.234" x2="442.976" y2="-423.679" gradientUnits="userSpaceOnUse">
<stop stop-color="#FF008E"/>
<stop offset="1" stop-color="#FFCD1E"/>
</linearGradient>
<linearGradient id="paint1_linear_61488_125" x1="94.1006" y1="108.84" x2="5.18529" y2="-42.8961" gradientUnits="userSpaceOnUse">
<stop stop-color="#8257E5"/>
<stop offset="1" stop-color="#FF008E" stop-opacity="0"/>
</linearGradient>
<linearGradient id="paint2_linear_61488_125" x1="94.1006" y1="6.02582" x2="5.18527" y2="-145.711" gradientUnits="userSpaceOnUse">
<stop stop-color="#8257E5"/>
<stop offset="1" stop-color="#FF008E" stop-opacity="0"/>
</linearGradient>
<linearGradient id="paint3_linear_61488_125" x1="362" y1="67.9367" x2="183.676" y2="-39.672" gradientUnits="userSpaceOnUse">
<stop stop-color="#FF008E" stop-opacity="0"/>
<stop offset="1" stop-color="#FFCD1E"/>
</linearGradient>
<linearGradient id="paint4_linear_61488_125" x1="272.7" y1="6.02583" x2="361.615" y2="-145.711" gradientUnits="userSpaceOnUse">
<stop stop-color="#8257E5"/>
<stop offset="1" stop-color="#FF008E" stop-opacity="0"/>
</linearGradient>
<linearGradient id="paint5_linear_61488_125" x1="183.4" y1="-35.9006" x2="272.316" y2="115.836" gradientUnits="userSpaceOnUse">
<stop stop-color="#8257E5"/>
<stop offset="1" stop-color="#FF008E" stop-opacity="0"/>
</linearGradient>
<clipPath id="clip0_61488_125">
<rect width="366" height="548" fill="white"/>
</clipPath>
</defs>
</svg>
